<svg xmlns="http://www.w3.org/2000/svg" aria-hidden="true" style="position:absolute;width:0;height:0;overflow:hidden">
  <defs>
    <symbol id="icon-logo" viewBox="0 0 55 32">
      <path fill="#173d33" d="M37.919 22.771c-.115-.273-9.583-18.774-9.738-19.029-.327-.772-.812-1.47-1.425-2.049S25.416.665 24.62.376a6.266 6.266 0 0 0-4.925.28 6.159 6.159 0 0 0-1.968 1.55 6.062 6.062 0 0 0-1.177 2.197 6.012 6.012 0 0 0 .641 4.822c.115.273 9.177 17.981 9.332 18.236.116.274.251.539.406.793.327.772.812 1.47 1.425 2.049s1.34 1.028 2.136 1.317a6.266 6.266 0 0 0 4.925-.28c.758-.378 1.427-.906 1.968-1.55s.942-1.393 1.177-2.197a6.01 6.01 0 0 0-.641-4.822z" style="fill:var(--color1, #173d33)"/>
      <path fill="#97d28b" d="M26.985 10.252a6.074 6.074 0 0 0 1.312-2.119 6.023 6.023 0 0 0-1.927-6.775C25.711.831 24.949.444 24.131.221S22.458-.057 21.618.06c-.84.117-1.646.404-2.369.842s-1.346 1.019-1.831 1.705c-.204.214-15.577 18.897-15.748 19.139a6.074 6.074 0 0 0-1.312 2.119 6.006 6.006 0 0 0 .335 4.851 6.104 6.104 0 0 0 1.592 1.924c.659.527 1.421.914 2.239 1.137s1.673.278 2.513.161c.84-.117 1.646-.404 2.369-.842s1.346-1.019 1.831-1.705c.204-.214 15.577-18.897 15.748-19.138zm26.454 0a6.074 6.074 0 0 0 1.312-2.119 6.006 6.006 0 0 0-.335-4.851 6.104 6.104 0 0 0-1.592-1.924C52.165.831 51.403.444 50.585.221S48.912-.057 48.072.06c-.84.117-1.646.404-2.369.842s-1.346 1.019-1.831 1.705c-.204.214-15.577 18.897-15.748 19.138a6.084 6.084 0 0 0-1.312 2.119 6.004 6.004 0 0 0 .335 4.851 6.104 6.104 0 0 0 1.592 1.924c.659.527 1.421.914 2.239 1.137s1.673.278 2.513.161c.84-.117 1.646-.404 2.369-.842s1.346-1.019 1.831-1.705c.204-.214 15.577-18.897 15.748-19.139z" style="fill:var(--color2, #97d28b)"/>
    </symbol>
  </defs>
</svg>
