<svg xmlns="http://www.w3.org/2000/svg" aria-hidden="true" style="position:absolute;width:0;height:0;overflow:hidden">
  <defs>
    <symbol id="icon-map" viewBox="0 0 31 32">
      <path stroke-linecap="round" stroke-linejoin="round" stroke-width="1.92" d="M2.931 10.598v12.454c0 2.432 1.728 3.43 3.827 2.227l3.008-1.715c.653-.371 1.741-.41 2.419-.064l6.72 3.366c.678.333 1.766.307 2.419-.064l5.542-3.174c.704-.41 1.293-1.408 1.293-2.227V8.947c0-2.432-1.728-3.43-3.827-2.227l-3.008 1.715c-.653.371-1.741.41-2.419.064l-6.72-3.354c-.678-.333-1.766-.307-2.419.064L4.224 8.383c-.717.41-1.293 1.408-1.293 2.214zm8.026-4.838V22.4m9.177-13.287v17.126"/>
    </symbol>
    <symbol id="icon-sms" viewBox="0 0 31 32">
      <path stroke-linecap="round" stroke-linejoin="round" stroke-miterlimit="10" stroke-width="1.92" d="M21.76 26.88H8.96c-3.84 0-6.4-1.92-6.4-6.4v-8.96c0-4.48 2.56-6.4 6.4-6.4h12.8c3.84 0 6.4 1.92 6.4 6.4v8.96c0 4.48-2.56 6.4-6.4 6.4z"/>
      <path stroke-linecap="round" stroke-linejoin="round" stroke-miterlimit="10" stroke-width="1.92" d="m21.76 12.16-4.006 3.2c-1.318 1.05-3.482 1.05-4.8 0l-3.994-3.2"/>
    </symbol>
  </defs>
</svg>
