<svg xmlns="http://www.w3.org/2000/svg" aria-hidden="true" style="position:absolute;width:0;height:0;overflow:hidden">
  <defs>
    <symbol id="icon-logo" viewBox="0 0 55 32">
      <path fill="#173d33" d="M37.919 22.771c-.115-.273-9.583-18.774-9.738-19.029-.327-.772-.812-1.47-1.425-2.049S25.416.665 24.62.376a6.266 6.266 0 0 0-4.925.28 6.159 6.159 0 0 0-1.968 1.55 6.062 6.062 0 0 0-1.177 2.197 6.012 6.012 0 0 0 .641 4.822c.115.273 9.177 17.981 9.332 18.236.116.274.251.539.406.793.327.772.812 1.47 1.425 2.049s1.34 1.028 2.136 1.317a6.266 6.266 0 0 0 4.925-.28c.758-.378 1.427-.906 1.968-1.55s.942-1.393 1.177-2.197a6.01 6.01 0 0 0-.641-4.822z" style="fill:var(--color1, #173d33)"/>
      <path fill="#97d28b" d="M26.985 10.252a6.074 6.074 0 0 0 1.312-2.119 6.023 6.023 0 0 0-1.927-6.775C25.711.831 24.949.444 24.131.221S22.458-.057 21.618.06c-.84.117-1.646.404-2.369.842s-1.346 1.019-1.831 1.705c-.204.214-15.577 18.897-15.748 19.139a6.074 6.074 0 0 0-1.312 2.119 6.006 6.006 0 0 0 .335 4.851 6.104 6.104 0 0 0 1.592 1.924c.659.527 1.421.914 2.239 1.137s1.673.278 2.513.161c.84-.117 1.646-.404 2.369-.842s1.346-1.019 1.831-1.705c.204-.214 15.577-18.897 15.748-19.138zm26.454 0a6.074 6.074 0 0 0 1.312-2.119 6.006 6.006 0 0 0-.335-4.851 6.104 6.104 0 0 0-1.592-1.924C52.165.831 51.403.444 50.585.221S48.912-.057 48.072.06c-.84.117-1.646.404-2.369.842s-1.346 1.019-1.831 1.705c-.204.214-15.577 18.897-15.748 19.138a6.084 6.084 0 0 0-1.312 2.119 6.004 6.004 0 0 0 .335 4.851 6.104 6.104 0 0 0 1.592 1.924c.659.527 1.421.914 2.239 1.137s1.673.278 2.513.161c.84-.117 1.646-.404 2.369-.842s1.346-1.019 1.831-1.705c.204-.214 15.577-18.897 15.748-19.139z" style="fill:var(--color2, #97d28b)"/>
    </symbol>
    <symbol id="icon-menu" viewBox="0 0 32 32">
      <path stroke-linecap="round" stroke-width="1.882" d="M4.706 9.726h22.588M4.706 16h22.588M4.706 22.274h22.588"/>
    </symbol>
    <symbol id="icon-arrow-right" viewBox="0 0 31 32">
      <path fill="#97d28b" style="fill: var(--color1, #97d28b)" d="M15.515 0.485c8.569 0 15.515 6.946 15.515 15.515s-6.946 15.515-15.515 15.515c-8.569 0-15.515-6.946-15.515-15.515s6.946-15.515 15.515-15.515z"></path>
      <path fill="none" stroke="#173d33" style="stroke: var(--color2, #173d33)" stroke-linejoin="round" stroke-linecap="round" stroke-miterlimit="10" stroke-width="0.9697" d="M17.086 12.076l3.924 3.924-3.924 3.924"></path>
      <path fill="none" stroke="#173d33" style="stroke: var(--color2, #173d33)" stroke-linejoin="round" stroke-linecap="round" stroke-miterlimit="10" stroke-width="0.9697" d="M10.020 16h10.88"></path>
    </symbol>
    <symbol id="icon-ranking" viewBox="0 0 32 32">
      <path stroke-linecap="round" stroke-linejoin="round" stroke-miterlimit="10" stroke-width="2" d="M11.56 18.667H5.333a2.675 2.675 0 0 0-2.667 2.667v8h8.893V18.667z"/>
      <path stroke-linecap="round" stroke-linejoin="round" stroke-miterlimit="10" stroke-width="2" d="M17.774 13.333h-3.56A2.675 2.675 0 0 0 11.547 16v13.333h8.893V16a2.666 2.666 0 0 0-2.667-2.667z"/>
      <path stroke-linecap="round" stroke-linejoin="round" stroke-miterlimit="10" stroke-width="2" d="M26.667 22.667H20.44v6.667h8.893v-4c0-1.467-1.2-2.667-2.667-2.667z"/>
      <path stroke-linecap="round" stroke-linejoin="round" stroke-width="2" d="m16.693 2.76.707 1.413c.093.2.347.387.56.413l1.28.213c.813.133 1.013.733.427 1.307l-1 1c-.173.173-.267.493-.213.72l.28 1.227c.227.973-.293 1.347-1.147.84l-1.2-.707a.826.826 0 0 0-.787 0l-1.2.707c-.853.507-1.373.133-1.147-.84l.28-1.227c.053-.227-.04-.56-.213-.72l-.987-.987c-.587-.587-.4-1.173.427-1.307l1.28-.213a.89.89 0 0 0 .56-.413l.707-1.413c.387-.773 1-.773 1.387-.013z"/>
    </symbol>
    <symbol id="icon-cpu-charge" viewBox="0 0 32 32">
      <path stroke-linecap="round" stroke-linejoin="round" stroke-width="1.333" d="M20.444 2.667h3.555v3.556M18.667 8 24 2.667m-12.444 16H8v-3.555m5.333-1.779L8 18.666m9.795-16.71a9.147 9.147 0 0 0-1.796-.178c-4.907 0-8.889 3.982-8.889 8.889 0 .613.062 1.209.178 1.778m6.916 6.933a9.147 9.147 0 0 0 1.796.178c4.907 0 8.889-3.982 8.889-8.889 0-.604-.062-1.2-.178-1.778"/>
    </symbol>
    <symbol id="icon-cpu-charge-s" viewBox="0 0 32 32">
      <path stroke-linecap="round" stroke-linejoin="round" stroke-width="2" d="M12.8 26.667h6.4c5.333 0 7.467-2.133 7.467-7.467v-6.4c0-5.333-2.133-7.467-7.467-7.467h-6.4c-5.333 0-7.467 2.133-7.467 7.467v6.4c0 5.333 2.133 7.467 7.467 7.467z"/>
      <path stroke-linecap="round" stroke-linejoin="round" stroke-width="2" d="M14 22.667h4c3.333 0 4.667-1.333 4.667-4.667v-4c0-3.333-1.333-4.667-4.667-4.667h-4c-3.333 0-4.667 1.333-4.667 4.667v4c0 3.333 1.333 4.667 4.667 4.667zM10.68 5.333V2.666M16 5.333V2.666m5.333 2.667V2.666m5.334 8.001h2.667M26.667 16h2.667m-2.667 5.333h2.667m-8.001 5.334v2.667m-5.32-2.667v2.667m-5.333-2.667v2.667M2.667 10.667h2.667M2.667 16h2.667m-2.667 5.333h2.667"/>
      <path stroke-linecap="round" stroke-linejoin="round" stroke-width="2" d="m16 12.933-1.253 2.187c-.28.48-.053.88.507.88h1.493c.56 0 .787.4.507.88l-1.253 2.187"/>
    </symbol>
    <symbol id="icon-global-edit" viewBox="0 0 32 32">
      <path stroke-linecap="round" stroke-linejoin="round" stroke-width="2" d="M29.333 16C29.333 8.64 23.36 2.667 16 2.667S2.667 8.64 2.667 16 8.64 29.333 16 29.333"/>
      <path stroke-linecap="round" stroke-linejoin="round" stroke-width="2" d="M10.666 4h1.333a37.898 37.898 0 0 0 0 24h-1.333M20 4a38.083 38.083 0 0 1 1.947 12"/>
      <path stroke-linecap="round" stroke-linejoin="round" stroke-width="2" d="M4 21.333V20a38.083 38.083 0 0 0 12 1.947M4 12a37.898 37.898 0 0 1 24 0"/>
      <path stroke-linecap="round" stroke-linejoin="round" stroke-miterlimit="10" stroke-width="2" d="m25.614 20.987-4.72 4.72a1.64 1.64 0 0 0-.4.787l-.253 1.8c-.093.653.36 1.107 1.013 1.013l1.8-.253c.253-.04.613-.213.787-.4l4.72-4.72c.813-.813 1.2-1.76 0-2.96-1.187-1.187-2.133-.8-2.947.013z"/>
      <path stroke-linecap="round" stroke-linejoin="round" stroke-miterlimit="10" stroke-width="2" d="M24.934 21.667c.4 1.44 1.52 2.56 2.96 2.96"/>
    </symbol>
    <symbol id="icon-arrow-left-slider" viewBox="0 0 32 32">
      <path stroke-width=".485" d="M16 .242C7.297.242.242 7.297.242 16S7.297 31.758 16 31.758 31.758 24.703 31.758 16 24.703.242 16 .242z"/>
      <path stroke-linecap="round" stroke-linejoin="round" stroke-miterlimit="10" stroke-width=".727" d="M14.232 11.585 9.817 16l4.415 4.415m7.949-4.416H9.941"/>
    </symbol>
    <symbol id="icon-arrow-right-slider" viewBox="0 0 32 32">
      <path stroke-width=".485" d="M16 .242C24.703.242 31.758 7.297 31.758 16S24.703 31.758 16 31.758.242 24.703.242 16 7.297.242 16 .242z"/>
      <path stroke-linecap="round" stroke-linejoin="round" stroke-miterlimit="10" stroke-width=".727" d="M17.768 11.585 22.183 16l-4.415 4.415m-7.949-4.416h12.24"/>
    </symbol>
    <symbol id="icon-arrow-right-top" viewBox="0 0 32 32">
      <path stroke-linecap="round" stroke-linejoin="round" stroke-miterlimit="10" stroke-width="1.714" d="M12.569 7.985h11.446v11.446M7.987 24.012 23.855 8.145"/>
    </symbol>
    <symbol id="icon-minus" viewBox="0 0 32 32">
      <path stroke="#173D33" stroke-linecap="round" stroke-linejoin="round" stroke-width="3" d="M8 16h16"/>
    </symbol>
    <symbol id="icon-add" viewBox="0 0 32 32">
      <path fill="none" stroke="#97d28b" stroke-linecap="round" stroke-linejoin="round" stroke-width="3" d="M8 16h16m-8 8V8" style="stroke:var(--color1, #97d28b)"/>
    </symbol>
    <symbol id="icon-down" viewBox="0 0 32 32">
      <path  d="M32 16c0 8.837-7.163 16-16 16S0 24.837 0 16 7.163 0 16 0s16 7.163 16 16z"/>
      <path   stroke-linecap="round" stroke-linejoin="round" stroke-width="1.905" d="m21.189 17.851-5.211 4.617-5.189-4.617m5.188-8.342v12.823" />
    </symbol>
    <symbol id="icon-call" viewBox="0 0 32 32">
      <path stroke-miterlimit="10" stroke-width="2" d="M29.293 24.44c0 .48-.107.973-.333 1.453s-.52.933-.907 1.36c-.653.72-1.373 1.24-2.187 1.573-.8.333-1.667.507-2.6.507-1.36 0-2.813-.32-4.347-.973s-3.067-1.533-4.587-2.64a38.332 38.332 0 0 1-4.373-3.733 37.98 37.98 0 0 1-3.72-4.36c-1.093-1.52-1.973-3.04-2.613-4.547-.64-1.52-.96-2.973-.96-4.36 0-.907.16-1.773.48-2.573.32-.813.827-1.56 1.533-2.227.853-.84 1.787-1.253 2.773-1.253.373 0 .747.08 1.08.24.347.16.653.4.893.747l3.093 4.36c.24.333.413.64.533.933.12.28.187.56.187.813 0 .32-.093.64-.28.947a4.52 4.52 0 0 1-.747.947l-1.013 1.053a.712.712 0 0 0-.213.533c0 .107.013.2.04.307.04.107.08.187.107.267.24.44.653 1.013 1.24 1.707.6.693 1.24 1.4 1.933 2.107.72.707 1.413 1.36 2.12 1.96.693.587 1.267.987 1.72 1.227.067.027.147.067.24.107a.92.92 0 0 0 .333.053c.227 0 .4-.08.547-.227l1.013-1c.333-.333.653-.587.96-.747.307-.187.613-.28.947-.28.253 0 .52.053.813.173s.6.293.933.52l4.413 3.133c.347.24.587.52.733.853.133.333.213.667.213 1.04z"/>
    </symbol>
    <symbol id="icon-facebook" viewBox="0 0 32 32">
      <path d="M18.667 12.4v3.867h3.467c.267 0 .4.267.4.533l-.533 2.533c0 .133-.267.267-.4.267h-2.933v9.733h-4v-9.6h-2.267c-.267 0-.4-.133-.4-.4V16.8c0-.267.133-.4.4-.4h2.267V12c0-2.267 1.733-4 4-4h3.6c.267 0 .4.133.4.4v3.2c0 .267-.133.4-.4.4h-3.2c-.267 0-.4.133-.4.4z"/>
      <path fill="none"  stroke-linecap="round" stroke-linejoin="round" stroke-width="2" d="M20 29.333h-8c-6.667 0-9.333-2.667-9.333-9.333v-8c0-6.667 2.667-9.333 9.333-9.333h8c6.667 0 9.333 2.667 9.333 9.333v8c0 6.667-2.667 9.333-9.333 9.333z" />
    </symbol>
    <symbol id="icon-instagram" viewBox="0 0 32 32">
      <path stroke-linecap="round" stroke-linejoin="round" stroke-width="2" d="M12 29.333h8c6.667 0 9.333-2.667 9.333-9.333v-8c0-6.667-2.667-9.333-9.333-9.333h-8c-6.667 0-9.333 2.667-9.333 9.333v8c0 6.667 2.667 9.333 9.333 9.333z"/>
      <path stroke-linecap="round" stroke-linejoin="round" stroke-width="2" d="M16 20.667a4.667 4.667 0 1 0 0-9.334 4.667 4.667 0 0 0 0 9.334z"/>
      <path stroke-linecap="round" stroke-linejoin="round" stroke-width="2.667" d="M23.515 9.333h.015"/>
    </symbol>
    <symbol id="icon-map" viewBox="0 0 32 32">
      <path stroke-linecap="round" stroke-linejoin="round" stroke-width="1.6" d="M5.643 8.299v10.379c0 2.027 1.44 2.859 3.189 1.856l2.507-1.429c.544-.309 1.451-.341 2.016-.053l5.6 2.805c.565.277 1.472.256 2.016-.053l4.619-2.645c.587-.341 1.077-1.173 1.077-1.856V6.924c0-2.027-1.44-2.859-3.189-1.856l-2.507 1.429c-.544.309-1.451.341-2.016.053l-5.6-2.795c-.565-.277-1.472-.256-2.016.053L6.72 6.453c-.597.341-1.077 1.173-1.077 1.845zm6.688-4.032v13.867M19.979 7.06v14.272"/>
    </symbol>
    <symbol id="icon-sms" viewBox="0 0 32 32">
      <path stroke-linecap="round" stroke-linejoin="round" stroke-miterlimit="10" stroke-width="2" d="M22.667 27.333H9.334c-4 0-6.667-2-6.667-6.667v-9.333c0-4.667 2.667-6.667 6.667-6.667h13.333c4 0 6.667 2 6.667 6.667v9.333c0 4.667-2.667 6.667-6.667 6.667z"/>
      <path stroke-linecap="round" stroke-linejoin="round" stroke-miterlimit="10" stroke-width="2" d="m22.667 12-4.173 3.333c-1.373 1.093-3.627 1.093-5 0L9.334 12"/>
    </symbol>
    <symbol id="icon-arrow-top-nav" viewBox="0 0 32 32">
      <path stroke-linejoin="round" stroke-linecap="round" stroke-miterlimit="10" stroke-width="2" d="M7.906 12.76l8.093-8.093 8.093 8.093"></path>
      <path stroke-linejoin="round" stroke-linecap="round" stroke-miterlimit="10" stroke-width="2" d="M16 27.333v-22.44"></path>
    </symbol>














<symbol id="icon-arrow-topp" viewBox="0 0 32 32">
<path fill="#97d28b" style="fill: var(--color1, #97d28b)" d="M0 16c0-8.837 7.163-16 16-16s16 7.163 16 16c0 8.837-7.163 16-16 16s-16-7.163-16-16z"></path>
<path fill="none" stroke="#173d33" style="stroke: var(--color2, #173d33)" stroke-linejoin="round" stroke-linecap="round" stroke-miterlimit="10" stroke-width="1" d="M11.953 14.38l4.047-4.047 4.047 4.047"></path>
<path fill="none" stroke="#173d33" style="stroke: var(--color2, #173d33)" stroke-linejoin="round" stroke-linecap="round" stroke-miterlimit="10" stroke-width="1" d="M16 21.667v-11.22"></path>
</symbol>




    <symbol id="icon-arrow-down" viewBox="0 0 36 32">
      <path stroke-linecap="round" stroke-linejoin="round" stroke-width="3.334" d="m27.08 19.24-9.12 8.08-9.08-8.08m9.08-14.6v22.44"/>
    </symbol>





    <symbol id="icon-arrow-left" viewBox="0 0 32 32">
      <path stroke-linecap="round" stroke-linejoin="round" stroke-miterlimit="10" stroke-width="1.333" d="m12.759 7.905-8.093 8.093 8.093 8.093m14.573-8.092H4.892"/>
    </symbol>
    <symbol id="icon-arrow-right-r" viewBox="0 0 32 32">
      <path stroke-linecap="round" stroke-linejoin="round" stroke-miterlimit="10" stroke-width="1.333" d="m12.759 7.905-8.093 8.093 8.093 8.093m14.573-8.092H4.892"/>
    </symbol>

    <symbol id="icon-arrow-top" viewBox="0 0 32 32">
      <path stroke-linecap="round" stroke-linejoin="round" stroke-miterlimit="10" stroke-width="2" d="m7.906 12.76 8.093-8.093 8.093 8.093M16 27.333V4.893"/>
    </symbol>

  </defs>
</svg>
